HIERARCHY
ROOT Hips
{
  OFFSET 0.0 0.0 0.0
  CHANNELS 6 XPOSITION YPOSITION ZPOSITION ZROTATION XROTATION YROTATION 
  JOINT LeftUpLeg
  {
    OFFSET 0.089458 -0.0866707 0.00101652
    CHANNELS 3 ZROTATION XROTATION YROTATION 
    JOINT LeftLeg
    {
      OFFSET 0.0 -0.444227 0.013727
      CHANNELS 3 ZROTATION XROTATION YROTATION 
      JOINT LeftFoot
      {
        OFFSET -0.00253549 -0.420924 -0.0146059
        CHANNELS 3 ZROTATION XROTATION YROTATION 
        End Site
        {
          OFFSET -0.0004 -0.0441509 0.084991
        }
      }
    }
  }
  JOINT Spine
  {
    OFFSET 0.0 0.118905 0.0
    CHANNELS 3 ZROTATION XROTATION YROTATION 
    JOINT Spine1
    {
      OFFSET 0.0 0.256574 0.00127663
      CHANNELS 3 ZROTATION XROTATION YROTATION 
      End Site
      {
        OFFSET -0.0029 0.2150836 0.02525291
      }
      JOINT RightArm
      {
        OFFSET -0.162727 -0.05365632 0.00102123
        CHANNELS 3 ZROTATION XROTATION YROTATION 
        JOINT RightForeArm
        {
          OFFSET -0.26364 0.00099144 -0.0142434
          CHANNELS 3 ZROTATION XROTATION YROTATION 
          End Site
          {
            OFFSET -0.220324 0.00085362 0.0102216
          }
        }
      }
      JOINT LeftArm
      {
        OFFSET 0.162727 -0.0536563199 0.00102123
        CHANNELS 3 ZROTATION XROTATION YROTATION 
        JOINT LeftForeArm
        {
          OFFSET 0.262597 0.00099144 -0.0142434
          CHANNELS 3 ZROTATION XROTATION YROTATION 
          End Site
          {
            OFFSET 0.220902 0.00085362 0.0102216
          }
        }
      }
    }
  }
  JOINT RightUpLeg
  {
    OFFSET -0.089458 -0.0866707 0.00101652
    CHANNELS 3 ZROTATION XROTATION YROTATION 
    JOINT RightLeg
    {
      OFFSET 0.0 -0.444227 0.013727
      CHANNELS 3 ZROTATION XROTATION YROTATION 
      JOINT RightFoot
      {
        OFFSET 0.00253549 -0.420924 -0.0146059
        CHANNELS 3 ZROTATION XROTATION YROTATION 
        End Site
        {
          OFFSET 0.0004 -0.0441509 0.084991
        }
      }
    }
  }
}
MOTION
Frames: 17
Frame Time: 0.033333
1.95770086065 0.984911298724 0.0391739463819 -4.11382507153 -0.492627073722 -91.3518950167 -0.982472019296 2.24875995639 1.85311996806 0.344178008073 9.18191038616 17.1548994873 -3.2276718463 -34.1097017528 -0.0624532820891 0.45458697547 8.74931010979 -0.0634835000656 -0.0708578031824 -3.13563995644 0.0566493021615 78.7370683745 -20.2261299061 6.31072084023 8.2039801225 41.0901994807 6.84979992378 -72.9281564099 -9.83647217376 0.876585144058 -4.09030019248 36.1186004065 -14.7956001763 -0.556324991035 3.08775990347 -4.05542012394 -0.258608997945 10.5633998156 -8.23215977547 3.12996855155 -36.4995029811 -0.0564163086675 
1.95783180981 0.980809484768 0.0389913604422 -4.12291818775 -0.504597193686 -91.3564234321 -0.983531125504 2.25007711568 1.85312060839 0.344338090632 9.1815560701 17.1630957143 -3.23019922974 -34.1146741305 -0.0624803427117 0.464102602922 8.75526005833 -0.0602575163432 -0.0868148993319 -3.15080511083 0.0627892286787 78.734561695 -20.223146821 6.29586005615 8.2010320421 41.0763888382 6.8577882569 -72.9247959568 -9.83430529624 0.882042678648 -4.08783534797 36.132916483 -14.795805082 -0.556428884615 3.08809821127 -4.05542097771 -0.258738878261 10.5633929854 -8.23213757735 3.12568922459 -36.499499566 -0.0564424621555 
1.95810854929 0.98066650917 0.0386620925664 -4.14127944379 -0.52808989614 -91.3663818479 -0.988785568688 2.25038874306 1.85199896326 0.343881108288 9.18677262708 17.1779513758 -3.23758031636 -34.1264459615 -0.0625838694364 0.498498208283 8.77835890433 -0.0536866709234 -0.156372378571 -3.21127256211 0.0815450948923 78.7233192037 -20.1701991946 6.23273630161 8.18185201713 40.996909342 6.91281311463 -72.9086903708 -9.85373291556 0.901727230475 -4.08330693255 36.2037455447 -14.7856537133 -0.558564652752 3.08866362287 -4.05544146828 -0.261008155252 10.5633588345 -8.23221527075 3.10178441627 -36.4994859056 -0.0566091881403 
1.95848070829 0.980647867939 0.038232348116 -4.15480108391 -0.565326753474 -91.3736559994 -1.00018056538 2.23501185281 1.84531519627 0.341208316527 9.20074036393 17.1771112625 -3.2410664876 -34.1287853013 -0.0627077199759 0.529887036305 8.79681834434 -0.0536050221484 -0.239484094743 -3.27893070848 0.0952457206556 78.7261878831 -20.1130066056 6.18070861627 8.15835872771 40.9750527366 6.96287541304 -72.893786898 -9.92711219914 0.924050850004 -4.08206042302 36.3081620617 -14.7606005795 -0.566795350867 3.07726574469 -4.05550720885 -0.267596779841 10.5632922401 -8.23117622822 3.06544759644 -36.4994756603 -0.0570665706909 
1.95892506339 0.9806430758 0.0376630180916 -4.15262865687 -0.615222192495 -91.3773852827 -1.01443837183 2.19721806825 1.83295490175 0.336275799369 9.21463382247 17.1649159598 -3.22724325193 -34.1153366588 -0.0626846814277 0.525615713474 8.78721851346 -0.0608651563854 -0.252273063675 -3.29193752309 0.0887614899052 78.7780290189 -20.2035151498 6.23961088701 8.17052841726 41.223801396 6.87747499652 -72.9101725218 -10.0091111814 0.93404405709 -4.07648058536 36.3608467258 -14.7489687673 -0.580903266681 3.04444711262 -4.05584530322 -0.274268860804 10.5633964005 -8.22499746835 3.05351290808 -36.5006436227 -0.057650558535 
1.95941103588 0.980641152816 0.037015166443 -4.14970405524 -0.663291142883 -91.3776516601 -1.02279777632 2.15731055359 1.82678766782 0.329531707935 9.22372651181 17.1651191579 -3.19347308913 -34.1054362996 -0.0623420247109 0.512550095201 8.76934049331 -0.0657611213598 -0.207008759715 -3.25803139683 0.0755438398915 78.8637888741 -20.4246664298 6.37972837585 8.22644802977 41.6376630484 6.67013521276 -72.9533598079 -10.0248496448 0.927833494144 -4.0556092348 36.3415480263 -14.7734891464 -0.592088822024 3.00977707239 -4.05806127271 -0.273713267603 10.5643423817 -8.22181374642 3.07672317154 -36.5068488495 -0.0579545486438 
1.95986119506 0.980626911253 0.0363768463004 -4.16218878727 -0.701077456919 -91.3681508669 -1.02218807522 2.13702403798 1.83070435442 0.323074617848 9.23064463966 17.173552734 -3.15247359798 -34.1124509039 -0.0616175444112 0.522075807855 8.74466131229 -0.0712901061321 -0.1757542543 -3.18414774648 0.0657781434719 78.9398157098 -20.6054427541 6.51430743505 8.29405921859 41.934981183 6.47683787104 -72.9861310556 -10.0066847567 0.889126812117 -4.03230206803 36.287230947 -14.8106709887 -0.596677641929 2.99333979527 -4.06718213658 -0.26347374682 10.5716916653 -8.23236468114 3.10229219814 -36.5172853786 -0.0578459192876 
1.96022535436 0.980601813354 0.035793908328 -4.18266996327 -0.737525107238 -91.3499006015 -1.02615822939 2.13143779702 1.82637785647 0.323613188936 9.23647335234 17.1765084983 -3.12745504193 -34.1284198862 -0.0606785668231 0.542224278937 8.68517292594 -0.0897398077821 -0.199907670835 -3.0596952965 0.0531534559308 78.9933643929 -20.6579088523 6.61872907463 8.35042364717 42.0203517174 6.36829677362 -72.977518187 -10.05184426 0.815819672416 -4.02150567339 36.2169756212 -14.8318189619 -0.607355468758 2.98317988888 -4.08877577964 -0.246399154349 10.5967430916 -8.24014853547 3.10010611072 -36.5264241717 -0.0577248902031 
1.96059937078 0.980574676688 0.0352951894032 -4.19968311072 -0.781332499832 -91.3354137702 -1.04739542196 2.12139805927 1.80214840072 0.333958337528 9.24365785758 17.1773349512 -3.13262634891 -34.1416704532 -0.0599082762312 0.555618706786 8.62529265749 -0.118926279993 -0.274682274011 -2.95351104123 0.0374693372294 79.0391403207 -20.620115708 6.68898098534 8.40382291988 41.9601675055 6.31456068721 -72.925704372 -10.1483667858 0.759738750049 -4.00415870045 36.1274489166 -14.8593224262 -0.633456556424 2.96251557843 -4.1184038596 -0.230155176915 10.6318408724 -8.22558913348 3.08411258245 -36.5364816252 -0.0580050613612 
1.96113919598 0.980548495851 0.0349181613981 -4.22074399903 -0.821894111827 -91.329410034 -1.07283456824 2.10198602132 1.77784167845 0.34361782584 9.25879526433 17.1811171685 -3.1528989907 -34.153578888 -0.0595724497035 0.583486945817 8.66668360386 -0.141764978494 -0.385258847847 -3.00090060124 0.0332025667467 79.07124904 -20.5247355314 6.66637690117 8.45350059326 41.7793382472 6.30753242255 -72.8488647438 -10.1817484816 0.778261209222 -3.95668120175 36.0459818353 -14.9244977988 -0.660853298958 2.94317290959 -4.14071723384 -0.220631745437 10.650411303 -8.20596770755 3.08281249863 -36.5505654753 -0.058529465143 
1.96181796388 0.980522951016 0.0346647566013 -4.25217311449 -0.842963057621 -91.3128058441 -1.07790320894 2.08043826859 1.77700391306 0.341162746359 9.28112656782 17.1699122431 -3.15376236929 -34.1692610023 -0.0595041678221 0.646510115145 8.82336472832 -0.151275509985 -0.509081533041 -3.21173872252 0.0446710446676 79.0688584738 -20.3759876716 6.52118159356 8.47449659476 41.5102185487 6.37386892732 -72.770522474 -10.1248666662 0.846163214691 -3.91018554275 36.012933965 -14.9884249543 -0.671232945341 2.93777556604 -4.14915977454 -0.212419923724 10.6508620955 -8.21074883996 3.09432072705 -36.5616440421 -0.0588546528506 
1.96242180426 0.980501361523 0.0345011062587 -4.2767361823 -0.847193399317 -91.2789417662 -1.06378179283 2.05694177751 1.79048745353 0.330080150781 9.29958003141 17.1335619764 -3.12296654043 -34.1843967015 -0.0592799054976 0.719387646619 8.97204001731 -0.157769472421 -0.619272227869 -3.42625255279 0.0575313570598 79.0434433399 -20.2252197834 6.34575373426 8.46602716019 41.2773364187 6.47301253822 -72.7043994127 -10.0717508463 0.88783750719 -3.92386128902 36.0197778145 -14.9790641801 -0.671230544102 2.9275947422 -4.15544013349 -0.196542868854 10.660666832 -8.23040783194 3.10126766977 -36.5651479292 -0.0589916768507 
1.96284001756 0.980485991382 0.0344322675298 -4.27999418253 -0.849981770684 -91.2554527456 -1.05445260819 2.02685820931 1.79641872578 0.318864179751 9.31132454169 17.1023685024 -3.09070008646 -34.1920191926 -0.0587418013169 0.77166362001 9.03600815398 -0.169617329331 -0.72544959959 -3.54688714047 0.0637710550317 79.0321393768 -20.1305431162 6.24194809237 8.47159547191 41.1291042383 6.51829626553 -72.6433989932 -10.0692877094 0.895906842086 -3.99536525878 36.0227626072 -14.9022484576 -0.679506652303 2.89481260894 -4.16752828766 -0.178331370051 10.6883376359 -8.23459729923 3.10466312756 -36.5684093445 -0.0593617477057 
1.96316923102 0.980474979132 0.0344946312124 -4.27589009261 -0.85446365544 -91.2623307461 -1.05635182767 1.99516954666 1.7994598675 0.304604612394 9.32813192969 17.0989773135 -3.09142707472 -34.1961173061 -0.0581657042088 0.814691143738 9.08904542666 -0.182712909723 -0.859506736286 -3.64995789669 0.0717762701927 79.0458748872 -20.0613737905 6.18358668723 8.51183553141 40.9537323011 6.51262848918 -72.5771666488 -10.0713120067 0.926466709258 -4.05684421838 36.0134735499 -14.837797085 -0.69302290298 2.85851527615 -4.17339542015 -0.173690523314 10.7077515949 -8.2291587611 3.10652819609 -36.5751644016 -0.0600730211944 
1.9634457046 0.980464238162 0.0346463409039 -4.2809055859 -0.850489926086 -91.2780811623 -1.05125650655 1.97355242482 1.81663779327 0.282997095511 9.35463647876 17.0966328511 -3.11891751891 -34.2078549862 -0.0578661363807 0.857668028017 9.18401237688 -0.188259823742 -0.986687526674 -3.76991480154 0.0854727137992 79.0589820202 -19.9661677837 6.10853784929 8.53827177859 40.7118684724 6.54610879583 -72.5238228714 -10.0746656296 0.970776494281 -4.07127213923 36.0378675705 -14.8182968949 -0.691402867486 2.84541070445 -4.15990280833 -0.186259992378 10.7036594578 -8.24749098883 3.0977838464 -36.5773842131 -0.060937640434 
1.96351382113 0.980451455502 0.0347825276422 -4.28709885993 -0.836230145286 -91.2762711622 -1.0335250153 1.96737024985 1.84044783271 0.264876043354 9.37775240023 17.0671947358 -3.1404163931 -34.2285299688 -0.0578569516439 0.865758333728 9.2337728663 -0.181014206992 -1.01713384195 -3.7830010171 0.0969132072878 79.0492285101 -19.8842260042 6.05814684803 8.51558189017 40.528833063 6.63179864161 -72.5164735879 -10.1293011665 0.949701732154 -4.07034792926 36.1312840678 -14.797898535 -0.670973825039 2.85131134756 -4.13254960826 -0.205098868068 10.69552641 -8.29213566657 3.07971159275 -36.5763665149 -0.0618777852907 
1.96330885464 0.980438069839 0.034907745311 -4.2811873312 -0.821552815811 -91.2680202937 -1.02183258521 1.97180731149 1.85260130057 0.260057718421 9.38504448094 17.04017963 -3.13966720673 -34.2457283852 -0.0579673152279 0.824556765025 9.1769363009 -0.16533285305 -0.956225523306 -3.64148120505 0.102866784366 79.0237177535 -19.8697852768 6.09585504178 8.50093369572 40.4606848506 6.66172853055 -72.5504810997 -10.2002198744 0.863235165799 -4.08131763995 36.260118511 -14.7559765414 -0.649579804929 2.85394950813 -4.10324638917 -0.225682897112 10.705167222 -8.33089357501 3.07088314636 -36.5838933834 -0.06288565841 
